<svg width="18" height="14" viewBox="0 0 18 14" fill="none" xmlns="http://www.w3.org/2000/svg">
<path d="M17.2969 1.84961C16.6852 2.12031 16.0312 2.30313 15.3422 2.3875C16.0453 1.96563 16.5867 1.29766 16.8398 0.503125C16.1824 0.893359 15.4547 1.17812 14.6777 1.3293C14.0555 0.664844 13.1695 0.25 12.1922 0.25C10.3113 0.25 8.78906 1.77578 8.78906 3.65664C8.78906 3.92383 8.81718 4.18398 8.87695 4.43359C6.04687 4.29297 3.53671 2.93594 1.85976 0.872266C1.56796 1.375 1.39921 1.96211 1.39921 2.58437C1.39921 3.76562 2.0039 4.80977 2.91796 5.42148C2.35546 5.40742 1.82812 5.25273 1.37109 4.99609V5.03828C1.37109 6.69062 2.54531 8.06523 4.10273 8.37813C3.81796 8.45547 3.51562 8.49766 3.20624 8.49766C2.98828 8.49766 2.77382 8.47656 2.5664 8.43437C2.99882 9.78789 4.25742 10.7723 5.74804 10.8004C4.58437 11.7145 3.11484 12.2594 1.51874 12.2594C1.24453 12.2594 0.973822 12.2418 0.706635 12.2102C2.20781 13.1875 3.99726 13.75 5.91679 13.75C12.1852 13.75 15.6094 8.55742 15.6094 4.05391C15.6094 3.90625 15.6059 3.75859 15.5988 3.61445C16.2633 3.13281 16.8398 2.53516 17.2969 1.84961Z" fill="white" fill-opacity="0.8"/>
</svg>
