<svg width="16" height="16" viewBox="0 0 16 16" fill="none" xmlns="http://www.w3.org/2000/svg">
<path d="M7.99999 5.65672C6.70976 5.65672 5.65683 6.70965 5.65683 7.99989C5.65683 9.29012 6.70976 10.3431 7.99999 10.3431C9.29023 10.3431 10.3432 9.29012 10.3432 7.99989C10.3432 6.70965 9.29023 5.65672 7.99999 5.65672ZM15.0277 7.99989C15.0277 7.02957 15.0365 6.06805 14.982 5.0995C14.9275 3.9745 14.6709 2.97606 13.8482 2.1534C13.0238 1.32899 12.0271 1.07411 10.9021 1.01961C9.93183 0.965122 8.9703 0.973912 8.00175 0.973912C7.03144 0.973912 6.06991 0.965122 5.10136 1.01961C3.97636 1.07411 2.97792 1.33075 2.15527 2.1534C1.33085 2.97782 1.07597 3.9745 1.02148 5.0995C0.966984 6.06981 0.975773 7.03133 0.975773 7.99989C0.975773 8.96844 0.966984 9.93172 1.02148 10.9003C1.07597 12.0253 1.33261 13.0237 2.15527 13.8464C2.97968 14.6708 3.97636 14.9257 5.10136 14.9802C6.07167 15.0347 7.0332 15.0259 8.00175 15.0259C8.97206 15.0259 9.93359 15.0347 10.9021 14.9802C12.0271 14.9257 13.0256 14.669 13.8482 13.8464C14.6727 13.022 14.9275 12.0253 14.982 10.9003C15.0383 9.93172 15.0277 8.9702 15.0277 7.99989ZM7.99999 11.6052C6.00487 11.6052 4.39472 9.995 4.39472 7.99989C4.39472 6.00477 6.00487 4.39461 7.99999 4.39461C9.99511 4.39461 11.6053 6.00477 11.6053 7.99989C11.6053 9.995 9.99511 11.6052 7.99999 11.6052ZM11.7529 5.08895C11.2871 5.08895 10.9109 4.71278 10.9109 4.24696C10.9109 3.78114 11.2871 3.40497 11.7529 3.40497C12.2187 3.40497 12.5949 3.78114 12.5949 4.24696C12.5951 4.35757 12.5734 4.46712 12.5311 4.56934C12.4888 4.67156 12.4268 4.76443 12.3486 4.84265C12.2704 4.92086 12.1775 4.98288 12.0753 5.02514C11.9731 5.06741 11.8635 5.08909 11.7529 5.08895Z" fill="white" fill-opacity="0.8"/>
</svg>
