<svg width="16" height="16" viewBox="0 0 16 16" fill="none" xmlns="http://www.w3.org/2000/svg">
<path d="M8 0.125C3.65117 0.125 0.125 3.65117 0.125 8C0.125 11.2238 2.06563 13.9941 4.83945 15.2141C4.81836 14.6656 4.83594 14.0047 4.97656 13.407C5.12773 12.7672 5.98906 9.11445 5.98906 9.11445C5.98906 9.11445 5.73594 8.61172 5.73594 7.86992C5.73594 6.70273 6.41094 5.83086 7.25469 5.83086C7.97188 5.83086 8.31641 6.36875 8.31641 7.01211C8.31641 7.73281 7.85586 8.80859 7.62031 9.80703C7.42344 10.6437 8.03867 11.3223 8.86484 11.3223C10.3555 11.3223 11.3609 9.40625 11.3609 7.13516C11.3609 5.40898 10.1973 4.11875 8.08437 4.11875C5.69727 4.11875 4.20664 5.90117 4.20664 7.89101C4.20664 8.57656 4.41055 9.06172 4.72695 9.43437C4.87109 9.60664 4.89219 9.67695 4.83945 9.87383C4.80078 10.018 4.71641 10.366 4.67773 10.5066C4.625 10.707 4.46328 10.7773 4.28398 10.7035C3.18359 10.2535 2.67031 9.05117 2.67031 7.69414C2.67031 5.4582 4.5582 2.77578 8.29883 2.77578C11.3047 2.77578 13.284 4.95195 13.284 7.28633C13.284 10.3766 11.5648 12.6828 9.03359 12.6828C8.18281 12.6828 7.38477 12.2223 7.11055 11.702C7.11055 11.702 6.65352 13.516 6.55508 13.8676C6.38984 14.4758 6.06289 15.0805 5.76406 15.5551C6.4707 15.7625 7.21953 15.8785 7.99648 15.8785C12.3453 15.8785 15.8715 12.3523 15.8715 8.00351C15.875 3.65117 12.3488 0.125 8 0.125Z" fill="white" fill-opacity="0.8"/>
</svg>
