<svg width="16" height="16" viewBox="0 0 16 16" fill="none" xmlns="http://www.w3.org/2000/svg">
<path d="M12.4998 6.20005C13.048 6.20007 13.5833 6.03319 14.0344 5.72161C14.4855 5.41003 14.831 4.96851 15.0251 4.45577C15.2191 3.94302 15.2525 3.38335 15.1207 2.85118C14.989 2.31901 14.6984 1.83956 14.2875 1.47658C13.8766 1.1136 13.365 0.884303 12.8206 0.819172C12.2763 0.754041 11.725 0.856166 11.2401 1.11197C10.7552 1.36777 10.3596 1.76512 10.1061 2.25119C9.85248 2.73725 9.75287 3.289 9.82049 3.83305L5.37449 6.05605C4.9931 5.68827 4.51193 5.44083 3.99091 5.34455C3.4699 5.24827 2.93208 5.30742 2.44444 5.51461C1.9568 5.72181 1.54089 6.0679 1.24854 6.50977C0.956181 6.95164 0.800293 7.46977 0.800293 7.9996C0.800293 8.52943 0.956181 9.04756 1.24854 9.48943C1.54089 9.9313 1.9568 10.2774 2.44444 10.4846C2.93208 10.6918 3.4699 10.7509 3.99091 10.6547C4.51193 10.5584 4.9931 10.3109 5.37449 9.94315L9.82049 12.1662C9.74174 12.7982 9.88894 13.4377 10.2361 13.9717C10.5832 14.5056 11.108 14.8997 11.7176 15.0842C12.3272 15.2687 12.9823 15.2318 13.5674 14.98C14.1524 14.7281 14.6295 14.2776 14.9145 13.708C15.1994 13.1384 15.2738 12.4864 15.1246 11.8673C14.9753 11.2481 14.612 10.7016 14.0988 10.3244C13.5856 9.94723 12.9556 9.7636 12.3201 9.80599C11.6846 9.84837 11.0845 10.114 10.626 10.5561L6.17999 8.33305C6.20723 8.11189 6.20723 7.88822 6.17999 7.66705L10.626 5.44405C11.1102 5.91205 11.7708 6.20005 12.4998 6.20005Z" fill="#121212"/>
</svg>
